<mxfile host="app.diagrams.net" modified="2023-08-25T16:35:11.768Z" agent="Mozilla/5.0 (X11; Linux x86_64; rv:109.0) Gecko/20100101 Firefox/111.0" etag="v68CF5vRwa4erP1uGZ_n" version="21.6.9" type="github" pages="2">
  <diagram id="C5RBs43oDa-KdzZeNtuy" name="Page-1">
    <mxGraphModel dx="1247" dy="629" grid="1" gridSize="10" guides="1" tooltips="1" connect="1" arrows="1" fold="1" page="1" pageScale="1" pageWidth="827" pageHeight="1169" math="0" shadow="0">
      <root>
        <mxCell id="WIyWlLk6GJQsqaUBKTNV-0" />
        <mxCell id="WIyWlLk6GJQsqaUBKTNV-1" parent="WIyWlLk6GJQsqaUBKTNV-0" />
        <mxCell id="NImY4c4o76sDH8dbV2zr-1" style="edgeStyle=orthogonalEdgeStyle;rounded=0;orthogonalLoop=1;jettySize=auto;html=1;exitX=1;exitY=0.5;exitDx=0;exitDy=0;" edge="1" parent="WIyWlLk6GJQsqaUBKTNV-1">
          <mxGeometry relative="1" as="geometry">
            <mxPoint x="310" y="149.5" as="targetPoint" />
            <mxPoint x="210" y="149.5" as="sourcePoint" />
          </mxGeometry>
        </mxCell>
        <mxCell id="NImY4c4o76sDH8dbV2zr-11" style="edgeStyle=orthogonalEdgeStyle;rounded=0;orthogonalLoop=1;jettySize=auto;html=1;exitX=0.5;exitY=1;exitDx=0;exitDy=0;" edge="1" parent="WIyWlLk6GJQsqaUBKTNV-1">
          <mxGeometry relative="1" as="geometry">
            <mxPoint x="129.5" y="237.5" as="targetPoint" />
            <mxPoint x="129.5" y="177.5" as="sourcePoint" />
          </mxGeometry>
        </mxCell>
        <mxCell id="NImY4c4o76sDH8dbV2zr-9" style="edgeStyle=orthogonalEdgeStyle;rounded=0;orthogonalLoop=1;jettySize=auto;html=1;exitX=1;exitY=0.5;exitDx=0;exitDy=0;" edge="1" parent="WIyWlLk6GJQsqaUBKTNV-1" source="NImY4c4o76sDH8dbV2zr-2">
          <mxGeometry relative="1" as="geometry">
            <mxPoint x="390" y="150" as="targetPoint" />
          </mxGeometry>
        </mxCell>
        <mxCell id="NImY4c4o76sDH8dbV2zr-2" value="alocado" style="rhombus;whiteSpace=wrap;html=1;" vertex="1" parent="WIyWlLk6GJQsqaUBKTNV-1">
          <mxGeometry x="260" y="122.5" width="60" height="55" as="geometry" />
        </mxCell>
        <mxCell id="NImY4c4o76sDH8dbV2zr-4" style="edgeStyle=orthogonalEdgeStyle;rounded=0;orthogonalLoop=1;jettySize=auto;html=1;exitX=0.5;exitY=1;exitDx=0;exitDy=0;" edge="1" parent="WIyWlLk6GJQsqaUBKTNV-1" source="NImY4c4o76sDH8dbV2zr-2" target="NImY4c4o76sDH8dbV2zr-2">
          <mxGeometry relative="1" as="geometry" />
        </mxCell>
        <mxCell id="NImY4c4o76sDH8dbV2zr-13" style="edgeStyle=orthogonalEdgeStyle;rounded=0;orthogonalLoop=1;jettySize=auto;html=1;exitX=0.5;exitY=1;exitDx=0;exitDy=0;" edge="1" parent="WIyWlLk6GJQsqaUBKTNV-1" source="NImY4c4o76sDH8dbV2zr-12">
          <mxGeometry relative="1" as="geometry">
            <mxPoint x="130" y="330" as="targetPoint" />
          </mxGeometry>
        </mxCell>
        <mxCell id="NImY4c4o76sDH8dbV2zr-12" value="pertence" style="rhombus;whiteSpace=wrap;html=1;" vertex="1" parent="WIyWlLk6GJQsqaUBKTNV-1">
          <mxGeometry x="100" y="220" width="60" height="60" as="geometry" />
        </mxCell>
        <mxCell id="NImY4c4o76sDH8dbV2zr-15" value="funcionário" style="swimlane;fontStyle=1;align=center;verticalAlign=top;childLayout=stackLayout;horizontal=1;startSize=26;horizontalStack=0;resizeParent=1;resizeParentMax=0;resizeLast=0;collapsible=1;marginBottom=0;whiteSpace=wrap;html=1;" vertex="1" parent="WIyWlLk6GJQsqaUBKTNV-1">
          <mxGeometry x="50" y="122.5" width="160" height="52" as="geometry" />
        </mxCell>
        <mxCell id="NImY4c4o76sDH8dbV2zr-21" style="edgeStyle=orthogonalEdgeStyle;rounded=0;orthogonalLoop=1;jettySize=auto;html=1;exitX=1;exitY=0.75;exitDx=0;exitDy=0;" edge="1" parent="WIyWlLk6GJQsqaUBKTNV-1" source="NImY4c4o76sDH8dbV2zr-20">
          <mxGeometry relative="1" as="geometry">
            <mxPoint x="540" y="160" as="targetPoint" />
          </mxGeometry>
        </mxCell>
        <mxCell id="NImY4c4o76sDH8dbV2zr-20" value="departamento" style="swimlane;fontStyle=1;align=center;verticalAlign=top;childLayout=stackLayout;horizontal=1;startSize=26;horizontalStack=0;resizeParent=1;resizeParentMax=0;resizeLast=0;collapsible=1;marginBottom=0;whiteSpace=wrap;html=1;" vertex="1" parent="WIyWlLk6GJQsqaUBKTNV-1">
          <mxGeometry x="380" y="122.5" width="160" height="52" as="geometry" />
        </mxCell>
        <mxCell id="NImY4c4o76sDH8dbV2zr-24" style="edgeStyle=orthogonalEdgeStyle;rounded=0;orthogonalLoop=1;jettySize=auto;html=1;exitX=1;exitY=0.5;exitDx=0;exitDy=0;" edge="1" parent="WIyWlLk6GJQsqaUBKTNV-1" source="NImY4c4o76sDH8dbV2zr-23">
          <mxGeometry relative="1" as="geometry">
            <mxPoint x="310" y="356" as="targetPoint" />
          </mxGeometry>
        </mxCell>
        <mxCell id="NImY4c4o76sDH8dbV2zr-23" value="projetos" style="swimlane;fontStyle=1;align=center;verticalAlign=top;childLayout=stackLayout;horizontal=1;startSize=26;horizontalStack=0;resizeParent=1;resizeParentMax=0;resizeLast=0;collapsible=1;marginBottom=0;whiteSpace=wrap;html=1;" vertex="1" parent="WIyWlLk6GJQsqaUBKTNV-1">
          <mxGeometry x="50" y="330" width="160" height="52" as="geometry" />
        </mxCell>
        <mxCell id="NImY4c4o76sDH8dbV2zr-28" style="edgeStyle=orthogonalEdgeStyle;rounded=0;orthogonalLoop=1;jettySize=auto;html=1;exitX=1;exitY=0.5;exitDx=0;exitDy=0;" edge="1" parent="WIyWlLk6GJQsqaUBKTNV-1" source="NImY4c4o76sDH8dbV2zr-25">
          <mxGeometry relative="1" as="geometry">
            <mxPoint x="410" y="356" as="targetPoint" />
          </mxGeometry>
        </mxCell>
        <mxCell id="NImY4c4o76sDH8dbV2zr-25" value="ultilizar" style="rhombus;whiteSpace=wrap;html=1;" vertex="1" parent="WIyWlLk6GJQsqaUBKTNV-1">
          <mxGeometry x="290" y="324" width="60" height="64" as="geometry" />
        </mxCell>
        <mxCell id="NImY4c4o76sDH8dbV2zr-32" style="edgeStyle=orthogonalEdgeStyle;rounded=0;orthogonalLoop=1;jettySize=auto;html=1;exitX=1;exitY=0.5;exitDx=0;exitDy=0;" edge="1" parent="WIyWlLk6GJQsqaUBKTNV-1" source="NImY4c4o76sDH8dbV2zr-29" target="NImY4c4o76sDH8dbV2zr-33">
          <mxGeometry relative="1" as="geometry">
            <mxPoint x="610" y="356" as="targetPoint" />
          </mxGeometry>
        </mxCell>
        <mxCell id="NImY4c4o76sDH8dbV2zr-29" value="fornecedores" style="swimlane;fontStyle=1;align=center;verticalAlign=top;childLayout=stackLayout;horizontal=1;startSize=26;horizontalStack=0;resizeParent=1;resizeParentMax=0;resizeLast=0;collapsible=1;marginBottom=0;whiteSpace=wrap;html=1;" vertex="1" parent="WIyWlLk6GJQsqaUBKTNV-1">
          <mxGeometry x="400" y="330" width="160" height="52" as="geometry" />
        </mxCell>
        <mxCell id="2vgfYs_3mf51VmDSGkuL-0" style="edgeStyle=orthogonalEdgeStyle;rounded=0;orthogonalLoop=1;jettySize=auto;html=1;exitX=1;exitY=0.5;exitDx=0;exitDy=0;" edge="1" parent="WIyWlLk6GJQsqaUBKTNV-1" source="NImY4c4o76sDH8dbV2zr-33">
          <mxGeometry relative="1" as="geometry">
            <mxPoint x="710" y="440" as="targetPoint" />
          </mxGeometry>
        </mxCell>
        <mxCell id="NImY4c4o76sDH8dbV2zr-33" value="fornecer" style="rhombus;whiteSpace=wrap;html=1;" vertex="1" parent="WIyWlLk6GJQsqaUBKTNV-1">
          <mxGeometry x="610" y="324" width="70" height="64" as="geometry" />
        </mxCell>
        <mxCell id="2vgfYs_3mf51VmDSGkuL-2" style="edgeStyle=orthogonalEdgeStyle;rounded=0;orthogonalLoop=1;jettySize=auto;html=1;exitX=0;exitY=0.5;exitDx=0;exitDy=0;" edge="1" parent="WIyWlLk6GJQsqaUBKTNV-1" source="2vgfYs_3mf51VmDSGkuL-1" target="2vgfYs_3mf51VmDSGkuL-3">
          <mxGeometry relative="1" as="geometry">
            <mxPoint x="590" y="456.217391304348" as="targetPoint" />
          </mxGeometry>
        </mxCell>
        <mxCell id="2vgfYs_3mf51VmDSGkuL-1" value="peças" style="swimlane;fontStyle=1;align=center;verticalAlign=top;childLayout=stackLayout;horizontal=1;startSize=26;horizontalStack=0;resizeParent=1;resizeParentMax=0;resizeLast=0;collapsible=1;marginBottom=0;whiteSpace=wrap;html=1;" vertex="1" parent="WIyWlLk6GJQsqaUBKTNV-1">
          <mxGeometry x="650" y="430" width="120" height="52" as="geometry" />
        </mxCell>
        <mxCell id="2vgfYs_3mf51VmDSGkuL-4" style="edgeStyle=orthogonalEdgeStyle;rounded=0;orthogonalLoop=1;jettySize=auto;html=1;exitX=0;exitY=0.5;exitDx=0;exitDy=0;" edge="1" parent="WIyWlLk6GJQsqaUBKTNV-1" source="2vgfYs_3mf51VmDSGkuL-3">
          <mxGeometry relative="1" as="geometry">
            <mxPoint x="510" y="456.217391304348" as="targetPoint" />
          </mxGeometry>
        </mxCell>
        <mxCell id="2vgfYs_3mf51VmDSGkuL-3" value="conter" style="rhombus;whiteSpace=wrap;html=1;" vertex="1" parent="WIyWlLk6GJQsqaUBKTNV-1">
          <mxGeometry x="560" y="424.11" width="60" height="63.78" as="geometry" />
        </mxCell>
        <mxCell id="2vgfYs_3mf51VmDSGkuL-5" value="depósito" style="swimlane;fontStyle=1;align=center;verticalAlign=top;childLayout=stackLayout;horizontal=1;startSize=26;horizontalStack=0;resizeParent=1;resizeParentMax=0;resizeLast=0;collapsible=1;marginBottom=0;whiteSpace=wrap;html=1;" vertex="1" parent="WIyWlLk6GJQsqaUBKTNV-1">
          <mxGeometry x="390" y="430" width="120" height="50" as="geometry" />
        </mxCell>
        <mxCell id="2vgfYs_3mf51VmDSGkuL-6" value="1" style="text;html=1;align=center;verticalAlign=middle;resizable=0;points=[];autosize=1;strokeColor=none;fillColor=none;" vertex="1" parent="WIyWlLk6GJQsqaUBKTNV-1">
          <mxGeometry x="125" y="178" width="30" height="30" as="geometry" />
        </mxCell>
        <mxCell id="2vgfYs_3mf51VmDSGkuL-7" value="1" style="text;html=1;align=center;verticalAlign=middle;resizable=0;points=[];autosize=1;strokeColor=none;fillColor=none;" vertex="1" parent="WIyWlLk6GJQsqaUBKTNV-1">
          <mxGeometry x="205" y="118" width="30" height="30" as="geometry" />
        </mxCell>
        <mxCell id="2vgfYs_3mf51VmDSGkuL-8" value="n" style="text;html=1;align=center;verticalAlign=middle;resizable=0;points=[];autosize=1;strokeColor=none;fillColor=none;" vertex="1" parent="WIyWlLk6GJQsqaUBKTNV-1">
          <mxGeometry x="125" y="298" width="30" height="30" as="geometry" />
        </mxCell>
        <mxCell id="2vgfYs_3mf51VmDSGkuL-9" value="n" style="text;html=1;align=center;verticalAlign=middle;resizable=0;points=[];autosize=1;strokeColor=none;fillColor=none;" vertex="1" parent="WIyWlLk6GJQsqaUBKTNV-1">
          <mxGeometry x="205" y="328" width="30" height="30" as="geometry" />
        </mxCell>
        <mxCell id="2vgfYs_3mf51VmDSGkuL-10" value="1" style="text;html=1;align=center;verticalAlign=middle;resizable=0;points=[];autosize=1;strokeColor=none;fillColor=none;" vertex="1" parent="WIyWlLk6GJQsqaUBKTNV-1">
          <mxGeometry x="345" y="128" width="30" height="30" as="geometry" />
        </mxCell>
        <mxCell id="2vgfYs_3mf51VmDSGkuL-11" value="n" style="text;html=1;align=center;verticalAlign=middle;resizable=0;points=[];autosize=1;strokeColor=none;fillColor=none;" vertex="1" parent="WIyWlLk6GJQsqaUBKTNV-1">
          <mxGeometry x="365" y="328" width="30" height="30" as="geometry" />
        </mxCell>
        <mxCell id="2vgfYs_3mf51VmDSGkuL-12" value="n" style="text;html=1;align=center;verticalAlign=middle;resizable=0;points=[];autosize=1;strokeColor=none;fillColor=none;" vertex="1" parent="WIyWlLk6GJQsqaUBKTNV-1">
          <mxGeometry x="565" y="328" width="30" height="30" as="geometry" />
        </mxCell>
        <mxCell id="2vgfYs_3mf51VmDSGkuL-13" value="n" style="text;html=1;align=center;verticalAlign=middle;resizable=0;points=[];autosize=1;strokeColor=none;fillColor=none;" vertex="1" parent="WIyWlLk6GJQsqaUBKTNV-1">
          <mxGeometry x="665" y="318" width="30" height="30" as="geometry" />
        </mxCell>
        <mxCell id="2vgfYs_3mf51VmDSGkuL-14" value="n" style="text;html=1;align=center;verticalAlign=middle;resizable=0;points=[];autosize=1;strokeColor=none;fillColor=none;" vertex="1" parent="WIyWlLk6GJQsqaUBKTNV-1">
          <mxGeometry x="615" y="418" width="30" height="30" as="geometry" />
        </mxCell>
        <mxCell id="2vgfYs_3mf51VmDSGkuL-15" value="1" style="text;html=1;align=center;verticalAlign=middle;resizable=0;points=[];autosize=1;strokeColor=none;fillColor=none;" vertex="1" parent="WIyWlLk6GJQsqaUBKTNV-1">
          <mxGeometry x="525" y="428" width="30" height="30" as="geometry" />
        </mxCell>
      </root>
    </mxGraphModel>
  </diagram>
  <diagram id="X6bnnsts2xUAZGpOtfwi" name="Página-2">
    <mxGraphModel dx="1434" dy="723" grid="1" gridSize="10" guides="1" tooltips="1" connect="1" arrows="1" fold="1" page="1" pageScale="1" pageWidth="827" pageHeight="1169" math="0" shadow="0">
      <root>
        <mxCell id="0" />
        <mxCell id="1" parent="0" />
      </root>
    </mxGraphModel>
  </diagram>
</mxfile>
